<?xml version="1.0" standalone="no"?>
<!DOCTYPE svg PUBLIC "-//W3C//DTD SVG 20010904//EN"
 "http://www.w3.org/TR/2001/REC-SVG-20010904/DTD/svg10.dtd">
<svg version="1.0" xmlns="http://www.w3.org/2000/svg"
 width="332.000000pt" height="948.000000pt" viewBox="0 0 332.000000 948.000000"
 preserveAspectRatio="xMidYMid meet">

<g transform="translate(0.000000,948.000000) scale(0.100000,-0.100000)"
fill="#000000" stroke="none">
<path d="M394 9167 c-2 -7 -3 -74 -2 -148 l3 -134 147 -3 148 -3 2 -1116 3
-1117 334 355 c184 195 366 388 405 429 38 41 109 116 156 165 47 50 150 160
230 245 80 85 226 240 325 345 98 104 213 226 254 270 41 44 111 118 156 165
44 47 152 162 240 255 88 94 185 196 215 228 30 32 57 63 58 68 2 5 -155 9
-402 9 l-407 0 -162 -152 c-182 -172 -660 -617 -836 -780 l-116 -107 -5 517
-5 517 -368 3 c-296 2 -369 0 -373 -11z"/>
<path d="M2360 7325 l0 -175 -230 0 -230 0 0 -135 0 -135 230 0 230 0 0 -180
0 -180 168 2 167 3 3 178 2 177 225 0 225 0 0 135 0 135 -225 0 -225 0 0 175
0 175 -170 0 -170 0 0 -175z"/>
<path d="M908 844 c-52 -27 -31 -64 21 -38 58 29 111 -6 96 -63 -3 -14 -30
-51 -59 -82 -57 -60 -86 -107 -86 -141 0 -19 6 -20 105 -20 98 0 105 1 105 20
0 18 -7 20 -80 20 -44 0 -80 4 -80 9 0 5 31 43 70 86 76 83 92 123 68 171 -24
51 -102 70 -160 38z"/>
<path d="M2315 846 c-37 -16 -70 -52 -84 -89 -17 -44 -13 -137 7 -177 28 -56
73 -80 153 -80 100 0 99 -1 99 91 0 78 0 79 -25 79 -24 0 -25 -2 -25 -65 l0
-65 -49 0 c-85 0 -127 55 -119 156 8 97 71 137 174 111 27 -7 32 -5 37 12 4
17 -2 22 -31 31 -50 13 -101 12 -137 -4z"/>
<path d="M1870 675 c0 -168 1 -175 20 -175 19 0 20 7 20 138 l1 137 29 -35
c16 -19 60 -81 97 -137 99 -149 103 -146 103 72 0 167 -1 175 -20 175 -18 0
-20 -8 -22 -127 l-3 -128 -44 65 c-82 119 -142 190 -162 190 -18 0 -19 -9 -19
-175z"/>
<path d="M2640 725 l0 -55 -45 0 c-38 0 -45 -3 -45 -20 0 -17 7 -20 45 -20
l45 0 0 -50 c0 -43 3 -50 20 -50 17 0 20 7 20 50 l0 50 50 0 c43 0 50 3 50 20
0 17 -7 20 -50 20 l-50 0 0 55 c0 48 -2 55 -20 55 -18 0 -20 -7 -20 -55z"/>
<path d="M629 678 c51 -148 68 -180 93 -176 18 2 30 20 56 86 18 46 39 103 47
128 13 43 13 44 -10 44 -20 0 -27 -12 -56 -100 -18 -55 -36 -97 -40 -93 -5 5
-21 49 -37 98 -26 80 -32 90 -55 93 l-26 3 28 -83z"/>
<path d="M1183 753 c-10 -3 -13 -39 -13 -129 0 -117 1 -124 20 -124 18 0 20 8
22 108 l3 107 48 3 c39 3 47 6 47 23 0 17 -7 19 -57 18 -32 0 -64 -3 -70 -6z"/>
<path d="M1370 740 c0 -18 7 -20 55 -20 43 0 56 -4 65 -19 17 -33 12 -38 -47
-43 -46 -4 -61 -10 -80 -32 -30 -35 -29 -71 2 -101 21 -22 33 -25 100 -25 l75
0 0 108 c0 100 -2 110 -23 130 -19 18 -35 22 -85 22 -55 0 -62 -2 -62 -20z
m130 -161 l0 -40 -52 3 c-47 3 -53 6 -56 26 -5 35 15 52 64 52 l44 0 0 -41z"/>
<path d="M1604 693 c13 -37 35 -94 50 -127 14 -32 26 -64 26 -71 0 -21 -36
-45 -68 -45 -25 0 -32 -4 -32 -20 0 -16 7 -20 30 -20 46 0 82 23 107 67 23 40
93 243 93 268 0 18 -39 20 -44 3 -47 -155 -58 -189 -63 -184 -3 3 -21 47 -38
98 -29 83 -35 93 -58 96 l-26 3 23 -68z"/>
</g>
</svg>
